<?xml version="1.0" encoding="UTF-8"?>
<svg id="Calque_1" data-name="Calque 1" xmlns="http://www.w3.org/2000/svg" viewBox="0 0 2070.76 1998.16">
  <defs>
    <style>
      .cls-1 {
        fill: #7f7f7f;
      }

      .cls-2 {
        fill: #bdbdbd;
      }

      .cls-3 {
        fill: #dadada;
      }

      .cls-4 {
        fill: #777;
      }

      .cls-5 {
        fill: #7b7b7b;
      }

      .cls-6 {
        fill: gray;
      }

      .cls-7 {
        fill: #edf5fb;
      }

      .cls-8 {
        fill: #9c9c9c;
      }

      .cls-9 {
        fill: #f0f0f0;
      }

      .cls-10 {
        fill: #838383;
      }

      .cls-11 {
        fill: #36b294;
      }

      .cls-12 {
        fill: #bababa;
      }

      .cls-13 {
        fill: #676767;
      }

      .cls-14 {
        fill: #848484;
      }

      .cls-15 {
        fill: #fff;
      }

      .cls-16 {
        fill: #f3f3f3;
      }

      .cls-17 {
        fill: #9d9d9d;
      }

      .cls-18 {
        fill: #818181;
      }

      .cls-19 {
        fill: #913791;
      }

      .cls-20 {
        fill: #717171;
      }

      .cls-21 {
        fill: #5f5f74;
      }

      .cls-22 {
        fill: #dedede;
      }

      .cls-23 {
        fill: #bcbcbc;
      }

      .cls-24 {
        fill: #6c6c6c;
      }

      .cls-25 {
        fill: #b5b5b5;
      }

      .cls-26 {
        fill: #707070;
      }

      .cls-27 {
        fill: #674447;
      }

      .cls-28 {
        fill: #e30613;
      }

      .cls-29 {
        fill: #919191;
      }

      .cls-30 {
        fill: #888;
      }

      .cls-31 {
        fill: #52c883;
      }

      .cls-32 {
        fill: #828282;
      }

      .cls-33 {
        fill: #b8b8b8;
      }

      .cls-34 {
        fill: #00a07d;
      }

      .cls-35 {
        fill: #757575;
      }

      .cls-36 {
        fill: #e5e5e5;
      }

      .cls-37 {
        fill: #7e7e92;
      }

      .cls-38 {
        fill: #8a8a8a;
      }

      .cls-39 {
        fill: #9b9b9b;
      }

      .cls-40 {
        fill: #44a67d;
      }

      .cls-41 {
        fill: #7c7c7c;
      }

      .cls-42 {
        fill: #858585;
      }

      .cls-43 {
        fill: #bebebe;
      }

      .cls-44 {
        fill: #8c8c8c;
      }

      .cls-45 {
        fill: #6e6e84;
      }

      .cls-46 {
        fill: #4f4f4f;
      }

      .cls-47 {
        fill: #797979;
      }

      .cls-48 {
        fill: #6d6d6d;
      }

      .cls-49 {
        fill: #b2b2b2;
      }

      .cls-50 {
        fill: #cacaca;
      }

      .cls-51 {
        fill: #696969;
      }

      .cls-52 {
        fill: #f37c23;
      }

      .cls-53 {
        fill: #c3e1f5;
      }

      .cls-54 {
        fill: #f8d922;
      }

      .cls-55 {
        fill: #18aae2;
      }

      .cls-56 {
        fill: none;
        stroke: #42484e;
        stroke-miterlimit: 10;
        stroke-width: 144px;
      }

      .cls-57 {
        fill: #616161;
      }

      .cls-58 {
        fill: #30b455;
      }

      .cls-59 {
        fill: #95c4f8;
      }

      .cls-60 {
        fill: #bfbfbf;
      }

      .cls-61 {
        fill: #34be71;
      }

      .cls-62 {
        fill: #898989;
      }

      .cls-63 {
        fill: #d4d4d4;
      }
    </style>
  </defs>
  <path class="cls-12" d="M701.9,1763.85c-20.47-8.36-40.51-17.46-60.12-27.26l-85.78,148.97c130.08,65.82,276.36,105.73,431.43,112.59v-170.54c-98.71-5.22-194.55-26.6-285.53-63.77Z"/>
  <path class="cls-12" d="M429.37,413.12c49.69-47.99,104.54-89.47,163.89-124.03l-86.14-148.79c-140.26,80.59-259.22,192.24-346.63,325.04l152.28,87.68c33.31-50.31,72.28-97.09,116.6-139.9Z"/>
  <path class="cls-12" d="M245.42,1322.8c-41.12-93.91-63.63-193.18-67.05-295.48l-178.29.21c4.78,168.07,52.77,325.91,133.6,463.52l152.2-88.11c-14.91-25.9-28.41-52.63-40.46-80.14Z"/>
  <path class="cls-12" d="M429.37,1586.37c-43.83-42.34-82.42-88.56-115.48-138.23l-152.07,88.04c87.72,132.56,206.92,243.93,347.36,324.21l85.79-148.99c-60.01-34.76-115.43-76.56-165.6-125.02Z"/>
  <path class="cls-12" d="M701.9,235.63c90.98-37.17,186.82-58.54,285.53-63.77V1.33c-155.91,6.89-302.94,47.19-433.55,113.65l86.14,148.79c20.17-10.13,40.8-19.53,61.89-28.14Z"/>
  <path class="cls-12" d="M245.42,676.68c11.78-26.9,24.95-53.04,39.46-78.4l-152.43-87.77C51.97,648.31,4.36,806.26,0,974.39l178.3-.21c3.2-103.01,25.72-202.97,67.12-297.5Z"/>
  <path class="cls-19" d="M1368.86,1763.85c-90.98,37.17-186.82,58.54-285.53,63.77v170.54c155.91-6.89,302.94-47.19,433.55-113.65l-86.14-148.79c-20.17,10.13-40.8,19.53-61.89,28.14Z"/>
  <path class="cls-28" d="M1368.86,235.63c20.47,8.36,40.51,17.46,60.12,27.26l85.78-148.97C1384.68,48.09,1238.4,8.19,1083.33,1.33v170.54c98.71,5.22,194.55,26.6,285.53,63.77Z"/>
  <path class="cls-52" d="M1641.39,413.12c43.83,42.34,82.42,88.56,115.49,138.23l152.07-88.04c-87.72-132.56-206.92-243.93-347.36-324.21l-85.79,148.99c60.01,34.76,115.43,76.56,165.6,125.02Z"/>
  <path class="cls-54" d="M1825.34,676.68c41.12,93.91,63.63,193.18,67.05,295.48l178.29-.21c-4.78-168.07-52.77-325.9-133.6-463.52l-152.2,88.11c14.91,25.9,28.41,52.63,40.46,80.14Z"/>
  <path class="cls-55" d="M1641.39,1586.37c-49.69,47.99-104.54,89.47-163.89,124.03l86.14,148.79c140.26-80.59,259.22-192.24,346.63-325.04l-152.28-87.68c-33.31,50.31-72.28,97.09-116.6,139.9Z"/>
  <path class="cls-58" d="M1825.34,1322.8c-11.78,26.9-24.95,53.05-39.46,78.4l152.43,87.77c80.48-137.79,128.09-295.74,132.45-463.88l-178.3.21c-3.2,103.01-25.72,202.97-67.12,297.5Z"/>
  <rect class="cls-15" x="987.43" y="1.33" width="50.51" height="169.21"/>
  <rect class="cls-15" x="1051.82" y="1827.62" width="31.52" height="170.36"/>
  <g>
    <path class="cls-59" d="M351.59,999.74c0,379.11,306.14,686.45,683.79,686.45s683.79-307.33,683.79-686.45-306.14-686.45-683.79-686.45S351.59,620.63,351.59,999.74Z"/>
    <path class="cls-37" d="M409.02,724.34c-20.74,47.49-36.01,97.2-45.52,148.17-.8,22.74-1.21,45.49-1.23,68.25,0,62.8,9.14,123.57,25.92,181.37,124.54,6.32,321.67,6.33,321.67,6.33l108.27-166.25-71.23-1.79c-133.51,0-224.75-187.56-337.88-236.08h0ZM1525.43,863.88c-73.37,0-103.64,97.25-201.58,97.25l32.05,226.31s251.08,21.13,272.45,26.65c12.1,3.13,39.6-5.83,61.2-14.19,19.2-63.34,29.62-130.52,29.62-200.16,0-4.9-.27-9.72-.37-14.6-3.97-3.18-151.56-121.27-193.37-121.27h0Z"/>
    <path class="cls-45" d="M1256.19,1546.76l363.47-190.25c41.86-68.95,71.81-145.93,87.34-228.05,0,0-144.08,4.02-201.5-21.45-70.61-31.32-230.66-252.98-330.76-386.04-18.61-23.5-36.67-45.32-53.88-64.44-29.68-33-116.37-42.9-128.21-42.9-10.26,0-93.32,98.1-153.95,171.62-91.4,112.04-199.01,247.06-252.05,300.31l-88.88,182.34,758.42,278.87Z"/>
    <path class="cls-21" d="M1635.48,1169.53c-105.06,0-209.36,15.76-332.99-89.35-48.08-40.88-95.62-80.18-136.22-30.84-25.38,30.84-72.38,132.73-130.88,89.83-58.5-42.9-83.14-175.5-138.89-176.97-45.41-1.2-82.8,65.27-116.25,28.6-22.02-24.14-224.31,117.54-224.31,117.54,0,0,207.01,184.51,236.39,182.76,29.38-1.76,202.74,24.82,202.74,24.82,0,0,61.5,72.71,93.08,61.02,31.58-11.7,108.75,12.7,153-6.99,44.24-19.68,255.25-107.42,259.8-118.15,4.55-10.73,134.55-82.26,134.55-82.26h0Z"/>
    <path class="cls-11" d="M821.03,1128.46c-33.93-15.55-26.55-56.04-64.11-68.38-36.73-12.07-41.4-20.78-62.1-38.88s-48.83,6.21-67.44-30.84c-10.78-21.45-56.76-30.84-76.13-49.61-19.37-18.77-53.93-12.56-68.78-18.77-32.05-13.41-19.37-32.85-57.43-28.83-26.63,2.81-40.77-18.63-60.69-25.43-5.97,30.71-9.85,61.79-11.6,93.03l167.11,91.27s162.93,52.96,174.95,57.65c12.02,4.69,195.75,84.37,190.32,77.06-9.69-13.05-37.07-45.89-64.11-58.29h0Z"/>
    <path class="cls-34" d="M967.78,1276.7c-9.97-4.99-33.18-17.57-53.49-44.56-20.31-26.99-20.48-44.69-44.52-56.76-27.03-13.57-26.71-14.75-58.76-30.84-32.05-16.09-32.05-26.81-51.42-49.61-21.25-25-54.22-23.63-86.27-37.93-32.05-14.3-45.62-39.71-65.31-49.22-19.69-9.5-32.05.89-49.86-8.22-24.13-12.35-25.55-47.42-55.66-43.85-30.12,3.57-37.61,14.25-58.3-4.24-34.5-30.84-50.53-11.4-88.9-23.25-2.46,23.76-3.69,47.63-3.7,71.51,0,57.94,7.23,114.18,20.7,167.93,30.43,5.96,63.77,12.31,96.98,19.77,103.43,23.24,375.58,109.05,471.73,125.13,96.16,16.09,36.75-30.89,26.77-35.88h0Z"/>
    <path class="cls-31" d="M354.14,1057c16.45,199.75,117.96,375.23,268.24,489.75h246.83l337.12-203.79c-280.37,0-436.66-284.78-852.19-285.96Z"/>
    <path class="cls-61" d="M1035.38,1686.19c333.8,0,611.57-240.17,671.61-557.74-252.84.08-562.12,317.7-842.56,278.87-154.92-21.45-194.99-64.44-395.16-22.51,122.99,181.87,330.64,301.38,566.11,301.38Z"/>
    <path class="cls-27" d="M941.95,1508.62c-3.57,0-6.46-2.9-6.46-6.48h0v-69.82c0-3.58,2.89-6.48,6.46-6.48h0c3.57,0,6.46,2.9,6.46,6.48h0v69.82c0,3.58-2.89,6.48-6.46,6.48h0Z"/>
    <path class="cls-34" d="M982.65,1426.38c0,22.56-18.22,40.85-40.69,40.85s-40.69-18.29-40.69-40.85,18.22-91.92,40.69-91.92,40.69,69.36,40.69,91.92Z"/>
    <path class="cls-11" d="M941.95,1334.47c-5.64,0-11.01,4.38-15.9,11.28,20.57,0,37.25,63.48,37.25,84.13,0,17.96-12.63,32.94-29.45,36.54,2.67.54,5.38.82,8.1.82,22.47,0,40.69-18.29,40.69-40.85,0-22.56-18.21-91.92-40.69-91.92h0Z"/>
    <path class="cls-27" d="M1467.21,1315.92c-4.92,0-8.92-4-8.92-8.95h0v-96.39c0-4.94,3.99-8.95,8.92-8.95h0c4.92,0,8.92,4,8.92,8.95h0v96.39c0,4.94-3.99,8.95-8.92,8.95h0Z"/>
    <path class="cls-34" d="M1523.39,1202.37c0,31.15-25.15,56.4-56.19,56.4s-56.18-25.25-56.18-56.4,25.15-126.91,56.18-126.91,56.19,95.76,56.19,126.91Z"/>
    <path class="cls-11" d="M1467.21,1075.47c-7.79,0-15.21,6.04-21.95,15.58h0c28.4,0,51.42,87.64,51.42,116.15,0,24.8-17.43,45.48-40.66,50.45,3.62.73,7.35,1.13,11.19,1.13,31.03,0,56.19-25.25,56.19-56.4s-25.16-126.91-56.19-126.91h0Z"/>
    <path class="cls-27" d="M1611.89,1328.48c-4.92,0-8.92-4-8.92-8.95h0v-96.39c0-4.94,3.99-8.95,8.92-8.95s8.92,4.01,8.92,8.95v96.38c0,4.94-4,8.95-8.92,8.95Z"/>
    <path class="cls-34" d="M1668.07,1214.93c0,31.15-25.15,56.4-56.19,56.4s-56.18-25.25-56.18-56.4,25.15-126.91,56.18-126.91,56.19,95.76,56.19,126.91Z"/>
    <path class="cls-11" d="M1611.89,1088.03c-7.79,0-15.21,6.04-21.95,15.58h0c28.4,0,51.42,87.64,51.42,116.15,0,24.8-17.43,45.48-40.66,50.45,3.62.73,7.35,1.13,11.19,1.13,31.03,0,56.19-25.25,56.19-56.4s-25.16-126.91-56.19-126.91h0Z"/>
    <path class="cls-27" d="M1132.11,1450.93c-4.92,0-8.92-4-8.92-8.95h0v-96.39c0-4.94,3.99-8.95,8.92-8.95s8.92,4.01,8.92,8.95v96.38c0,4.94-3.99,8.95-8.92,8.95h0Z"/>
    <path class="cls-34" d="M1188.29,1337.39c0,31.15-25.15,56.4-56.18,56.4s-56.19-25.25-56.19-56.4,25.15-126.91,56.19-126.91,56.18,95.76,56.18,126.91Z"/>
    <path class="cls-11" d="M1132.11,1210.48c-7.79,0-15.21,6.04-21.95,15.58h0c28.4,0,51.42,87.64,51.42,116.15,0,24.8-17.43,45.48-40.66,50.45,3.62.73,7.35,1.13,11.19,1.13,31.03,0,56.19-25.25,56.19-56.4s-25.16-126.91-56.19-126.91h0Z"/>
    <path class="cls-27" d="M1014.59,1493.43c-4.58,0-8.3-3.73-8.31-8.33h0v-89.75c0-4.6,3.72-8.33,8.31-8.33s8.31,3.73,8.31,8.33v89.74c0,4.6-3.72,8.33-8.3,8.33h0Z"/>
    <path class="cls-34" d="M1066.9,1387.71c0,29.01-23.42,52.52-52.32,52.52s-52.32-23.51-52.32-52.52,23.42-118.17,52.32-118.17,52.32,89.16,52.32,118.17Z"/>
    <path class="cls-11" d="M1014.58,1269.54c-7.25,0-14.16,5.63-20.44,14.5h0c26.44,0,47.88,81.6,47.88,108.15,0,23.09-16.23,42.35-37.86,46.97,3.37.68,6.85,1.05,10.42,1.05,28.89,0,52.32-23.51,52.32-52.52,0-29-23.43-118.16-52.32-118.16h0Z"/>
    <path class="cls-40" d="M1649,1302.42c-378.57-72.07-458.73,223.54-1052.18,223.62,118.74,99.84,271.56,160.16,438.56,160.16,269.39,0,502.21-156.48,613.62-383.77h0Z"/>
    <path class="cls-15" d="M1299.93,755.53c0-33.55,27.09-60.74,60.51-60.74,5.04,0,9.87.8,14.55,1.97,15.79-17.12,38.17-28,63.25-28,47.74,0,86.44,38.85,86.44,86.77h-224.74Z"/>
    <path class="cls-53" d="M1174.73,720.96c-18.61-23.5-36.67-45.32-53.88-64.44-29.68-33-116.37-42.9-128.21-42.9-10.26,0-93.32,98.1-153.95,171.62-23.24,28.49-47.53,58.46-71.7,88.21,10.45,14.64,30.67,35.26,60.62,32.33,58.93-5.77,70.42-75.02,114.98-69.26,60.69,7.86,51.48,184.68,114.98,184.68s18.94-134.1,91.98-161.59c53.8-20.25,73.64,37.81,164.3,45.36-49.59-63.64-99.13-130.85-139.11-184Z"/>
    <path class="cls-7" d="M1200.32,755.1c-8.84-11.83-17.46-23.33-25.59-34.14-18.61-23.5-36.67-45.32-53.88-64.44-29.68-33-116.37-42.9-128.21-42.9-7.15,0-49.67,47.66-95.3,101.43,49.9-39.76,77.12-23.4,86.4,23.11,21.43,107.4,44.52,193.66,71.23,125.73,26.71-67.93,14.97-106.83,93.32-98.77,30.93,3.18,37.3-5.91,52.03-10.02h0Z"/>
    <path class="cls-15" d="M673.32,785.23c0-36.4,29.39-65.9,65.65-65.9,5.47,0,10.7.87,15.79,2.13,17.13-18.57,41.42-30.38,68.62-30.38,51.79,0,93.78,42.15,93.78,94.15h-243.83ZM1333.15,741.38c-4.58,0-8.92.91-13.07,2.22-13.15-18.98-34.97-31.46-59.74-31.46s-46.59,12.48-59.74,31.46c-4.15-1.31-8.48-2.22-13.07-2.22-24.12,0-43.68,19.63-43.68,43.85h232.98c0-24.22-19.56-43.85-43.69-43.85Z"/>
    <path class="cls-15" d="M689.39,704.88c-3.48,0-6.77.69-9.91,1.68-9.98-14.4-26.53-23.87-45.33-23.87s-35.35,9.47-45.33,23.87c-3.15-1-6.44-1.68-9.91-1.68-18.31,0-33.15,14.9-33.15,33.28h176.78c0-18.38-14.84-33.28-33.14-33.28Z"/>
    <path class="cls-15" d="M1182.13,482.23c-3.25,0-6.31.64-9.25,1.57-9.31-13.43-24.76-22.27-42.29-22.27s-32.98,8.83-42.29,22.27c-2.94-.93-6.01-1.57-9.25-1.57-5.93,0-11.42,1.76-16.13,4.67-9.98-21.72-31.72-36.87-57.11-36.87-18.28,0-34.6,7.93-46.1,20.41-3.41-.85-6.93-1.43-10.61-1.43-24.36,0-44.11,19.83-44.11,44.28h308.06c0-17.15-13.84-31.05-30.93-31.05h0Z"/>
    <path class="cls-15" d="M1190,482.23c-3.25,0-6.31.64-9.25,1.57-9.31-13.43-24.76-22.27-42.29-22.27s-32.98,8.83-42.29,22.27c-2.94-.93-6.01-1.57-9.25-1.57-5.93,0-11.42,1.76-16.13,4.67-9.98-21.72-31.72-36.87-57.11-36.87-18.28,0-34.6,7.93-46.1,20.41-3.41-.85-6.93-1.43-10.61-1.43-24.36,0-44.11,19.83-44.11,44.28h308.06c0-17.15-13.84-31.05-30.93-31.05h0Z"/>
    <path class="cls-15" d="M838.53,568.4c-2.64,0-5.14.52-7.54,1.28-7.59-10.95-20.18-18.15-34.47-18.15-10.54,0-20.12,3.96-27.49,10.4-10.05-14.57-26.78-24.14-45.77-24.14-16.15,0-30.58,7.01-40.75,18.04-3.02-.75-6.12-1.27-9.38-1.27-21.53,0-38.99,17.52-38.99,39.14h229.59c0-13.98-11.29-25.31-25.21-25.31h0Z"/>
    <path class="cls-15" d="M1551.09,549.26c-10.01-11.53-20.27-22.83-31.01-33.67-.85.64-1.78,1.19-2.58,1.89-10.05-14.57-26.78-24.14-45.77-24.14-16.15,0-30.58,7.01-40.75,18.04-3.02-.75-6.12-1.27-9.38-1.27-21.53,0-38.99,17.52-38.99,39.14h168.47Z"/>
    <path class="cls-53" d="M1635.47,922.75c-42.41-29.72-89.27-58.87-110.04-58.87-46.45,0-75.66,38.94-115.68,67.55l.03.02c66.32-11.25,71.16,74.56,101.88,74.56,35.94,0,36.92-46.02,72.17-30.39,68.56,30.39,16.92-40.67,51.64-52.86h0Z"/>
    <path class="cls-7" d="M1593.8,895.03c-28.4-17.76-54.35-31.15-68.37-31.15-31.75,0-55.47,18.26-80.07,38.9,34.99,15.32,62.75,59.95,105.73,31.26,28.48-19.01,33.65-30.61,42.71-39.01Z"/>
    <path class="cls-27" d="M1391,1356.18c-6.13,0-11.1-4.98-11.1-11.13h0v-119.93c0-6.15,4.97-11.13,11.1-11.13s11.1,4.98,11.1,11.13v119.93c0,6.15-4.97,11.14-11.1,11.13h0Z"/>
    <path class="cls-34" d="M1460.91,1214.91c0,38.76-31.3,70.18-69.91,70.18s-69.91-31.42-69.91-70.18,31.3-157.9,69.91-157.9,69.91,119.14,69.91,157.9Z"/>
    <path class="cls-11" d="M1391,1057c-9.69,0-18.92,7.52-27.31,19.38h0c35.34,0,63.98,109.05,63.98,144.52,0,30.86-21.69,56.59-50.59,62.77,4.5.91,9.15,1.41,13.92,1.41,38.61,0,69.91-31.42,69.91-70.18,0-38.76-31.3-157.91-69.91-157.91Z"/>
    <path class="cls-27" d="M1543.61,1338.88c-5.79,0-10.48-4.71-10.49-10.52h0v-113.31c0-5.81,4.69-10.52,10.49-10.52s10.49,4.71,10.49,10.52v113.31c0,5.81-4.69,10.52-10.48,10.52h0Z"/>
    <path class="cls-34" d="M1609.66,1205.39c0,36.62-29.57,66.31-66.05,66.31s-66.05-29.69-66.05-66.31,29.57-149.19,66.05-149.19,66.05,112.57,66.05,149.19Z"/>
    <path class="cls-11" d="M1543.61,1056.2c-9.16,0-17.88,7.11-25.81,18.31h0c33.39,0,60.45,103.03,60.45,136.55,0,29.16-20.5,53.46-47.8,59.31,4.25.86,8.65,1.33,13.15,1.33,36.48,0,66.05-29.69,66.05-66.31,0-36.62-29.58-149.19-66.06-149.19h0Z"/>
    <path class="cls-27" d="M1305.32,1368.9c-5.06,0-9.15-4.11-9.16-9.19h0v-98.94c0-5.07,4.1-9.19,9.16-9.19s9.16,4.11,9.16,9.19v98.94c0,5.08-4.1,9.19-9.16,9.19h0Z"/>
    <path class="cls-34" d="M1363,1252.35c0,31.98-25.82,57.9-57.68,57.9s-57.68-25.92-57.68-57.9,25.82-130.27,57.68-130.27,57.68,98.3,57.68,130.27h0Z"/>
    <path class="cls-11" d="M1305.32,1122.07c-8,0-15.61,6.2-22.53,15.99h0c29.15,0,52.79,89.97,52.79,119.24,0,25.46-17.9,46.68-41.74,51.79,3.71.75,7.55,1.16,11.48,1.16,31.85,0,57.68-25.92,57.68-57.9s-25.82-130.27-57.68-130.27h0Z"/>
    <path class="cls-27" d="M1227.63,1472.9c-7.18,0-13.01-5.84-13.02-13.05h0v-140.64c0-7.21,5.82-13.06,13.02-13.06s13.02,5.85,13.02,13.06v140.63c0,7.21-5.83,13.06-13.01,13.06h0Z"/>
    <path class="cls-34" d="M1309.6,1307.24c0,45.45-36.7,82.3-81.98,82.3s-81.98-36.85-81.98-82.3,36.7-185.16,81.98-185.16,81.98,139.71,81.98,185.16Z"/>
    <path class="cls-11" d="M1227.63,1122.07c-11.37,0-22.19,8.82-32.03,22.73h0c41.44,0,75.03,127.87,75.03,169.47,0,36.19-25.44,66.35-59.33,73.61,5.28,1.07,10.73,1.65,16.32,1.65,45.27,0,81.98-36.85,81.98-82.29,0-45.45-36.71-185.16-81.98-185.16h0Z"/>
    <path class="cls-21" d="M1035.38,1686.19c179.93,0,343.51-69.87,465.55-183.94-74.24,12.33-187.09-113.7-304.5-67.72-52.32,20.49-218.75,162.22-363.78,220.76,64.08,19.96,132.11,30.9,202.73,30.9Z"/>
    <path class="cls-45" d="M1196.43,1434.53c-52.32,20.49-218.75,162.22-363.78,220.76,4.89,1.52,9.94,2.63,14.87,4.04,146.62-34.81,319.27-190.33,376.61-192.09,16.37-.5,121.98,79.52,181.44,109.47,33.95-22.03,65.89-46.92,95.36-74.47-74.24,12.33-187.09-113.69-304.51-67.72h0Z"/>
  </g>
  <g>
    <rect class="cls-57" x="997.39" y="1648.06" width="37.99" height="38.14"/>
    <rect class="cls-57" x="959.4" y="1648.06" width="37.99" height="38.14"/>
    <rect class="cls-57" x="921.42" y="1648.06" width="37.99" height="38.14"/>
    <rect class="cls-57" x="883.43" y="1648.06" width="37.99" height="38.14"/>
    <rect class="cls-25" x="845.44" y="1648.06" width="37.99" height="38.14"/>
    <rect class="cls-57" x="997.39" y="1609.92" width="37.99" height="38.14"/>
    <rect class="cls-57" x="959.4" y="1609.92" width="37.99" height="38.14"/>
    <rect class="cls-57" x="921.42" y="1609.92" width="37.99" height="38.14"/>
    <rect class="cls-26" x="883.43" y="1609.92" width="37.99" height="38.14"/>
    <rect class="cls-14" x="845.44" y="1609.92" width="37.99" height="38.14"/>
    <rect class="cls-14" x="807.45" y="1609.92" width="37.99" height="38.14"/>
    <rect class="cls-14" x="769.46" y="1609.92" width="37.99" height="38.14"/>
    <rect class="cls-43" x="731.47" y="1609.92" width="37.99" height="38.14"/>
    <rect class="cls-57" x="997.39" y="1571.78" width="37.99" height="38.14"/>
    <rect class="cls-26" x="959.4" y="1571.78" width="37.99" height="38.14"/>
    <rect class="cls-10" x="921.42" y="1571.78" width="37.99" height="38.14"/>
    <rect class="cls-14" x="883.43" y="1571.78" width="37.99" height="38.14"/>
    <rect class="cls-14" x="845.44" y="1571.78" width="37.99" height="38.14"/>
    <rect class="cls-14" x="807.45" y="1571.78" width="37.99" height="38.14"/>
    <rect class="cls-14" x="769.46" y="1571.78" width="37.99" height="38.14"/>
    <rect class="cls-14" x="731.47" y="1571.78" width="37.99" height="38.14"/>
    <rect class="cls-14" x="693.49" y="1571.78" width="37.99" height="38.14"/>
    <rect class="cls-35" x="997.39" y="1533.65" width="37.99" height="38.14"/>
    <rect class="cls-14" x="959.4" y="1533.65" width="37.99" height="38.14"/>
    <rect class="cls-14" x="921.42" y="1533.65" width="37.99" height="38.14"/>
    <rect class="cls-14" x="883.43" y="1533.65" width="37.99" height="38.14"/>
    <rect class="cls-14" x="845.44" y="1533.65" width="37.99" height="38.14"/>
    <rect class="cls-14" x="807.45" y="1533.65" width="37.99" height="38.14"/>
    <rect class="cls-14" x="769.46" y="1533.65" width="37.99" height="38.14"/>
    <rect class="cls-14" x="731.47" y="1533.65" width="37.99" height="38.14"/>
    <rect class="cls-14" x="693.49" y="1533.65" width="37.99" height="38.14"/>
    <rect class="cls-14" x="655.5" y="1533.65" width="37.99" height="38.14"/>
    <rect class="cls-47" x="617.51" y="1533.65" width="37.99" height="38.14"/>
    <rect class="cls-14" x="997.39" y="1495.51" width="37.99" height="38.14"/>
    <rect class="cls-14" x="959.4" y="1495.51" width="37.99" height="38.14"/>
    <rect class="cls-14" x="921.42" y="1495.51" width="37.99" height="38.14"/>
    <rect class="cls-14" x="883.43" y="1495.51" width="37.99" height="38.14"/>
    <rect class="cls-14" x="845.44" y="1495.51" width="37.99" height="38.14"/>
    <rect class="cls-14" x="807.45" y="1495.51" width="37.99" height="38.14"/>
    <rect class="cls-30" x="769.46" y="1495.51" width="37.99" height="38.14"/>
    <rect class="cls-44" x="731.47" y="1495.51" width="37.99" height="38.14"/>
    <rect class="cls-44" x="693.49" y="1495.51" width="37.99" height="38.14"/>
    <rect class="cls-44" x="655.5" y="1495.51" width="37.99" height="38.14"/>
    <rect class="cls-44" x="617.51" y="1495.51" width="37.99" height="38.14"/>
    <rect class="cls-44" x="579.52" y="1495.51" width="37.99" height="38.14"/>
    <rect class="cls-14" x="997.39" y="1457.38" width="37.99" height="38.14"/>
    <rect class="cls-14" x="959.4" y="1457.38" width="37.99" height="38.14"/>
    <rect class="cls-46" x="921.42" y="1457.38" width="37.99" height="38.14"/>
    <rect class="cls-44" x="883.43" y="1457.38" width="37.99" height="38.14"/>
    <rect class="cls-44" x="845.44" y="1457.38" width="37.99" height="38.14"/>
    <rect class="cls-44" x="807.45" y="1457.38" width="37.99" height="38.14"/>
    <rect class="cls-44" x="769.46" y="1457.38" width="37.99" height="38.14"/>
    <rect class="cls-44" x="731.47" y="1457.38" width="37.99" height="38.14"/>
    <rect class="cls-44" x="693.49" y="1457.38" width="37.99" height="38.14"/>
    <rect class="cls-44" x="655.5" y="1457.38" width="37.99" height="38.14"/>
    <rect class="cls-44" x="617.51" y="1457.38" width="37.99" height="38.14"/>
    <rect class="cls-44" x="579.52" y="1457.38" width="37.99" height="38.14"/>
    <rect class="cls-44" x="541.53" y="1457.38" width="37.99" height="38.14"/>
    <rect class="cls-5" x="997.39" y="1419.24" width="37.99" height="38.14"/>
    <rect class="cls-38" x="959.4" y="1419.24" width="37.99" height="38.14"/>
    <rect class="cls-24" x="921.42" y="1419.24" width="37.99" height="38.14"/>
    <rect class="cls-62" x="883.43" y="1419.24" width="37.99" height="38.14"/>
    <rect class="cls-44" x="845.44" y="1419.24" width="37.99" height="38.14"/>
    <rect class="cls-44" x="807.45" y="1419.24" width="37.99" height="38.14"/>
    <rect class="cls-44" x="769.46" y="1419.24" width="37.99" height="38.14"/>
    <rect class="cls-44" x="731.47" y="1419.24" width="37.99" height="38.14"/>
    <rect class="cls-44" x="693.49" y="1419.24" width="37.99" height="38.14"/>
    <rect class="cls-44" x="655.5" y="1419.24" width="37.99" height="38.14"/>
    <rect class="cls-44" x="617.51" y="1419.24" width="37.99" height="38.14"/>
    <rect class="cls-44" x="579.52" y="1419.24" width="37.99" height="38.14"/>
    <rect class="cls-44" x="541.53" y="1419.24" width="37.99" height="38.14"/>
    <rect class="cls-24" x="997.39" y="1381.1" width="37.99" height="38.14"/>
    <rect class="cls-24" x="959.4" y="1381.1" width="37.99" height="38.14"/>
    <rect class="cls-24" x="921.42" y="1381.1" width="37.99" height="38.14"/>
    <rect class="cls-17" x="883.43" y="1381.1" width="37.99" height="38.14"/>
    <rect class="cls-8" x="845.44" y="1381.1" width="37.99" height="38.14"/>
    <rect class="cls-44" x="807.45" y="1381.1" width="37.99" height="38.14"/>
    <rect class="cls-44" x="769.46" y="1381.1" width="37.99" height="38.14"/>
    <rect class="cls-44" x="731.47" y="1381.1" width="37.99" height="38.14"/>
    <rect class="cls-44" x="693.49" y="1381.1" width="37.99" height="38.14"/>
    <rect class="cls-44" x="655.5" y="1381.1" width="37.99" height="38.14"/>
    <rect class="cls-44" x="617.51" y="1381.1" width="37.99" height="38.14"/>
    <rect class="cls-44" x="579.52" y="1381.1" width="37.99" height="38.14"/>
    <rect class="cls-44" x="541.53" y="1381.1" width="37.99" height="38.14"/>
    <rect class="cls-44" x="503.54" y="1381.1" width="37.99" height="38.14"/>
    <rect class="cls-18" x="465.56" y="1381.1" width="37.99" height="38.14"/>
    <rect class="cls-24" x="997.39" y="1342.97" width="37.99" height="38.14"/>
    <rect class="cls-24" x="959.4" y="1342.97" width="37.99" height="38.14"/>
    <rect class="cls-48" x="921.42" y="1342.97" width="37.99" height="38.14"/>
    <rect class="cls-17" x="883.43" y="1342.97" width="37.99" height="38.14"/>
    <rect class="cls-17" x="845.44" y="1342.97" width="37.99" height="38.14"/>
    <rect class="cls-17" x="807.45" y="1342.97" width="37.99" height="38.14"/>
    <rect class="cls-17" x="769.46" y="1342.97" width="37.99" height="38.14"/>
    <rect class="cls-17" x="731.47" y="1342.97" width="37.99" height="38.14"/>
    <rect class="cls-17" x="693.49" y="1342.97" width="37.99" height="38.14"/>
    <rect class="cls-17" x="655.5" y="1342.97" width="37.99" height="38.14"/>
    <rect class="cls-17" x="617.51" y="1342.97" width="37.99" height="38.14"/>
    <rect class="cls-17" x="579.52" y="1342.97" width="37.99" height="38.14"/>
    <rect class="cls-17" x="541.53" y="1342.97" width="37.99" height="38.14"/>
    <rect class="cls-17" x="503.54" y="1342.97" width="37.99" height="38.14"/>
    <rect class="cls-17" x="465.56" y="1342.97" width="37.99" height="38.14"/>
    <rect class="cls-24" x="997.39" y="1304.83" width="37.99" height="38.14"/>
    <rect class="cls-24" x="959.4" y="1304.83" width="37.99" height="38.14"/>
    <rect class="cls-17" x="921.42" y="1304.83" width="37.99" height="38.14"/>
    <rect class="cls-17" x="883.43" y="1304.83" width="37.99" height="38.14"/>
    <rect class="cls-17" x="845.44" y="1304.83" width="37.99" height="38.14"/>
    <rect class="cls-17" x="807.45" y="1304.83" width="37.99" height="38.14"/>
    <rect class="cls-17" x="769.46" y="1304.83" width="37.99" height="38.14"/>
    <rect class="cls-17" x="731.47" y="1304.83" width="37.99" height="38.14"/>
    <rect class="cls-17" x="693.49" y="1304.83" width="37.99" height="38.14"/>
    <rect class="cls-17" x="655.5" y="1304.83" width="37.99" height="38.14"/>
    <rect class="cls-17" x="617.51" y="1304.83" width="37.99" height="38.14"/>
    <rect class="cls-17" x="579.52" y="1304.83" width="37.99" height="38.14"/>
    <rect class="cls-17" x="541.53" y="1304.83" width="37.99" height="38.14"/>
    <rect class="cls-17" x="503.54" y="1304.83" width="37.99" height="38.14"/>
    <rect class="cls-17" x="465.56" y="1304.83" width="37.99" height="38.14"/>
    <rect class="cls-17" x="427.57" y="1304.83" width="37.99" height="38.14"/>
    <rect class="cls-62" x="997.39" y="1266.7" width="37.99" height="38.14"/>
    <rect class="cls-8" x="959.4" y="1266.7" width="37.99" height="38.14"/>
    <rect class="cls-17" x="921.42" y="1266.7" width="37.99" height="38.14"/>
    <rect class="cls-17" x="883.43" y="1266.7" width="37.99" height="38.14"/>
    <rect class="cls-17" x="845.44" y="1266.7" width="37.99" height="38.14"/>
    <rect class="cls-17" x="807.45" y="1266.7" width="37.99" height="38.14"/>
    <rect class="cls-17" x="769.46" y="1266.7" width="37.99" height="38.14"/>
    <rect class="cls-17" x="731.47" y="1266.7" width="37.99" height="38.14"/>
    <rect class="cls-17" x="693.49" y="1266.7" width="37.99" height="38.14"/>
    <rect class="cls-17" x="655.5" y="1266.7" width="37.99" height="38.14"/>
    <rect class="cls-17" x="617.51" y="1266.7" width="37.99" height="38.14"/>
    <rect class="cls-17" x="579.52" y="1266.7" width="37.99" height="38.14"/>
    <rect class="cls-17" x="541.53" y="1266.7" width="37.99" height="38.14"/>
    <rect class="cls-17" x="503.54" y="1266.7" width="37.99" height="38.14"/>
    <rect class="cls-17" x="465.56" y="1266.7" width="37.99" height="38.14"/>
    <rect class="cls-17" x="427.57" y="1266.7" width="37.99" height="38.14"/>
    <rect class="cls-57" x="997.39" y="1228.56" width="37.99" height="38.14"/>
    <rect class="cls-57" x="959.4" y="1228.56" width="37.99" height="38.14"/>
    <rect class="cls-57" x="921.42" y="1228.56" width="37.99" height="38.14"/>
    <rect class="cls-17" x="883.43" y="1228.56" width="37.99" height="38.14"/>
    <rect class="cls-17" x="845.44" y="1228.56" width="37.99" height="38.14"/>
    <rect class="cls-17" x="807.45" y="1228.56" width="37.99" height="38.14"/>
    <rect class="cls-17" x="769.46" y="1228.56" width="37.99" height="38.14"/>
    <rect class="cls-17" x="731.47" y="1228.56" width="37.99" height="38.14"/>
    <rect class="cls-17" x="693.49" y="1228.56" width="37.99" height="38.14"/>
    <rect class="cls-17" x="655.5" y="1228.56" width="37.99" height="38.14"/>
    <rect class="cls-17" x="617.51" y="1228.56" width="37.99" height="38.14"/>
    <rect class="cls-17" x="579.52" y="1228.56" width="37.99" height="38.14"/>
    <rect class="cls-17" x="541.53" y="1228.56" width="37.99" height="38.14"/>
    <rect class="cls-17" x="503.54" y="1228.56" width="37.99" height="38.14"/>
    <rect class="cls-17" x="465.56" y="1228.56" width="37.99" height="38.14"/>
    <rect class="cls-17" x="427.57" y="1228.56" width="37.99" height="38.14"/>
    <rect class="cls-17" x="389.58" y="1228.56" width="37.99" height="38.14"/>
    <rect class="cls-57" x="997.39" y="1190.42" width="37.99" height="38.14"/>
    <rect class="cls-57" x="959.4" y="1190.42" width="37.99" height="38.14"/>
    <rect class="cls-57" x="921.42" y="1190.42" width="37.99" height="38.14"/>
    <rect class="cls-51" x="883.43" y="1190.42" width="37.99" height="38.14"/>
    <rect class="cls-24" x="845.44" y="1190.42" width="37.99" height="38.14"/>
    <rect class="cls-17" x="807.45" y="1190.42" width="37.99" height="38.14"/>
    <rect class="cls-17" x="769.46" y="1190.42" width="37.99" height="38.14"/>
    <rect class="cls-17" x="731.47" y="1190.42" width="37.99" height="38.14"/>
    <rect class="cls-17" x="693.49" y="1190.42" width="37.99" height="38.14"/>
    <rect class="cls-17" x="655.5" y="1190.42" width="37.99" height="38.14"/>
    <rect class="cls-17" x="617.51" y="1190.42" width="37.99" height="38.14"/>
    <rect class="cls-17" x="579.52" y="1190.42" width="37.99" height="38.14"/>
    <rect class="cls-17" x="541.53" y="1190.42" width="37.99" height="38.14"/>
    <rect class="cls-17" x="503.54" y="1190.42" width="37.99" height="38.14"/>
    <rect class="cls-17" x="465.56" y="1190.42" width="37.99" height="38.14"/>
    <rect class="cls-17" x="427.57" y="1190.42" width="37.99" height="38.14"/>
    <rect class="cls-17" x="389.58" y="1190.42" width="37.99" height="38.14"/>
    <rect class="cls-57" x="997.39" y="1152.29" width="37.99" height="38.14"/>
    <rect class="cls-57" x="959.4" y="1152.29" width="37.99" height="38.14"/>
    <rect class="cls-57" x="921.42" y="1152.29" width="37.99" height="38.14"/>
    <rect class="cls-57" x="883.43" y="1152.29" width="37.99" height="38.14"/>
    <rect class="cls-32" x="845.44" y="1152.29" width="37.99" height="38.14"/>
    <rect class="cls-24" x="807.45" y="1152.29" width="37.99" height="38.14"/>
    <rect class="cls-24" x="769.46" y="1152.29" width="37.99" height="38.14"/>
    <rect class="cls-17" x="731.47" y="1152.29" width="37.99" height="38.14"/>
    <rect class="cls-17" x="693.49" y="1152.29" width="37.99" height="38.14"/>
    <rect class="cls-17" x="655.5" y="1152.29" width="37.99" height="38.14"/>
    <rect class="cls-17" x="617.51" y="1152.29" width="37.99" height="38.14"/>
    <rect class="cls-17" x="579.52" y="1152.29" width="37.99" height="38.14"/>
    <rect class="cls-17" x="541.53" y="1152.29" width="37.99" height="38.14"/>
    <rect class="cls-17" x="503.54" y="1152.29" width="37.99" height="38.14"/>
    <rect class="cls-17" x="465.56" y="1152.29" width="37.99" height="38.14"/>
    <rect class="cls-17" x="427.57" y="1152.29" width="37.99" height="38.14"/>
    <rect class="cls-17" x="389.58" y="1152.29" width="37.99" height="38.14"/>
    <rect class="cls-57" x="997.39" y="1114.15" width="37.99" height="38.14"/>
    <rect class="cls-57" x="959.4" y="1114.15" width="37.99" height="38.14"/>
    <rect class="cls-57" x="921.42" y="1114.15" width="37.99" height="38.14"/>
    <rect class="cls-57" x="883.43" y="1114.15" width="37.99" height="38.14"/>
    <rect class="cls-57" x="845.44" y="1114.15" width="37.99" height="38.14"/>
    <rect class="cls-62" x="807.45" y="1114.15" width="37.99" height="38.14"/>
    <rect class="cls-24" x="769.46" y="1114.15" width="37.99" height="38.14"/>
    <rect class="cls-24" x="731.47" y="1114.15" width="37.99" height="38.14"/>
    <rect class="cls-20" x="693.49" y="1114.15" width="37.99" height="38.14"/>
    <rect class="cls-17" x="655.5" y="1114.15" width="37.99" height="38.14"/>
    <rect class="cls-17" x="617.51" y="1114.15" width="37.99" height="38.14"/>
    <rect class="cls-17" x="579.52" y="1114.15" width="37.99" height="38.14"/>
    <rect class="cls-17" x="541.53" y="1114.15" width="37.99" height="38.14"/>
    <rect class="cls-17" x="503.54" y="1114.15" width="37.99" height="38.14"/>
    <rect class="cls-17" x="465.56" y="1114.15" width="37.99" height="38.14"/>
    <rect class="cls-17" x="427.57" y="1114.15" width="37.99" height="38.14"/>
    <rect class="cls-17" x="389.58" y="1114.15" width="37.99" height="38.14"/>
    <rect class="cls-39" x="351.59" y="1114.15" width="37.99" height="38.14"/>
    <rect class="cls-26" x="997.39" y="1076.02" width="37.99" height="38.14"/>
    <rect class="cls-57" x="959.4" y="1076.02" width="37.99" height="38.14"/>
    <rect class="cls-57" x="921.42" y="1076.02" width="37.99" height="38.14"/>
    <rect class="cls-57" x="883.43" y="1076.02" width="37.99" height="38.14"/>
    <rect class="cls-57" x="845.44" y="1076.02" width="37.99" height="38.14"/>
    <rect class="cls-57" x="807.45" y="1076.02" width="37.99" height="38.14"/>
    <rect class="cls-41" x="769.46" y="1076.02" width="37.99" height="38.14"/>
    <rect class="cls-24" x="731.47" y="1076.02" width="37.99" height="38.14"/>
    <rect class="cls-24" x="693.49" y="1076.02" width="37.99" height="38.14"/>
    <rect class="cls-24" x="655.5" y="1076.02" width="37.99" height="38.14"/>
    <rect class="cls-24" x="617.51" y="1076.02" width="37.99" height="38.14"/>
    <rect class="cls-29" x="579.52" y="1076.02" width="37.99" height="38.14"/>
    <rect class="cls-17" x="541.53" y="1076.02" width="37.99" height="38.14"/>
    <rect class="cls-17" x="503.54" y="1076.02" width="37.99" height="38.14"/>
    <rect class="cls-17" x="465.56" y="1076.02" width="37.99" height="38.14"/>
    <rect class="cls-17" x="427.57" y="1076.02" width="37.99" height="38.14"/>
    <rect class="cls-17" x="389.58" y="1076.02" width="37.99" height="38.14"/>
    <rect class="cls-17" x="351.59" y="1076.02" width="37.99" height="38.14"/>
    <rect class="cls-26" x="997.39" y="1037.88" width="37.99" height="38.14"/>
    <rect class="cls-26" x="959.4" y="1037.88" width="37.99" height="38.14"/>
    <rect class="cls-57" x="921.42" y="1037.88" width="37.99" height="38.14"/>
    <rect class="cls-57" x="883.43" y="1037.88" width="37.99" height="38.14"/>
    <rect class="cls-57" x="845.44" y="1037.88" width="37.99" height="38.14"/>
    <rect class="cls-57" x="807.45" y="1037.88" width="37.99" height="38.14"/>
    <rect class="cls-57" x="769.46" y="1037.88" width="37.99" height="38.14"/>
    <rect class="cls-13" x="731.47" y="1037.88" width="37.99" height="38.14"/>
    <rect class="cls-62" x="693.49" y="1037.88" width="37.99" height="38.14"/>
    <rect class="cls-42" x="655.5" y="1037.88" width="37.99" height="38.14"/>
    <rect class="cls-24" x="617.51" y="1037.88" width="37.99" height="38.14"/>
    <rect class="cls-24" x="579.52" y="1037.88" width="37.99" height="38.14"/>
    <rect class="cls-24" x="541.53" y="1037.88" width="37.99" height="38.14"/>
    <rect class="cls-24" x="503.54" y="1037.88" width="37.99" height="38.14"/>
    <rect class="cls-24" x="465.56" y="1037.88" width="37.99" height="38.14"/>
    <rect class="cls-24" x="427.57" y="1037.88" width="37.99" height="38.14"/>
    <rect class="cls-24" x="389.58" y="1037.88" width="37.99" height="38.14"/>
    <rect class="cls-4" x="351.59" y="1037.88" width="37.99" height="38.14"/>
    <rect class="cls-26" x="997.39" y="999.74" width="37.99" height="38.14"/>
    <rect class="cls-26" x="959.4" y="999.74" width="37.99" height="38.14"/>
    <rect class="cls-57" x="921.42" y="999.74" width="37.99" height="38.14"/>
    <rect class="cls-57" x="883.43" y="999.74" width="37.99" height="38.14"/>
    <rect class="cls-57" x="845.44" y="999.74" width="37.99" height="38.14"/>
    <rect class="cls-57" x="807.45" y="999.74" width="37.99" height="38.14"/>
    <rect class="cls-57" x="769.46" y="999.74" width="37.99" height="38.14"/>
    <rect class="cls-57" x="731.47" y="999.74" width="37.99" height="38.14"/>
    <rect class="cls-57" x="693.49" y="999.74" width="37.99" height="38.14"/>
    <rect class="cls-62" x="655.5" y="999.74" width="37.99" height="38.14"/>
    <rect class="cls-62" x="617.51" y="999.74" width="37.99" height="38.14"/>
    <rect class="cls-24" x="579.52" y="999.74" width="37.99" height="38.14"/>
    <rect class="cls-24" x="541.53" y="999.74" width="37.99" height="38.14"/>
    <rect class="cls-24" x="503.54" y="999.74" width="37.99" height="38.14"/>
    <rect class="cls-24" x="465.56" y="999.74" width="37.99" height="38.14"/>
    <rect class="cls-24" x="427.57" y="999.74" width="37.99" height="38.14"/>
    <rect class="cls-24" x="389.58" y="999.74" width="37.99" height="38.14"/>
    <rect class="cls-24" x="351.59" y="999.74" width="37.99" height="38.14"/>
    <rect class="cls-49" x="997.39" y="961.61" width="37.99" height="38.14"/>
    <rect class="cls-26" x="959.4" y="961.61" width="37.99" height="38.14"/>
    <rect class="cls-26" x="921.42" y="961.61" width="37.99" height="38.14"/>
    <rect class="cls-57" x="883.43" y="961.61" width="37.99" height="38.14"/>
    <rect class="cls-57" x="845.44" y="961.61" width="37.99" height="38.14"/>
    <rect class="cls-26" x="807.45" y="961.61" width="37.99" height="38.14"/>
    <rect class="cls-26" x="769.46" y="961.61" width="37.99" height="38.14"/>
    <rect class="cls-26" x="731.47" y="961.61" width="37.99" height="38.14"/>
    <rect class="cls-26" x="693.49" y="961.61" width="37.99" height="38.14"/>
    <rect class="cls-1" x="655.5" y="961.61" width="37.99" height="38.14"/>
    <rect class="cls-6" x="617.51" y="961.61" width="37.99" height="38.14"/>
    <rect class="cls-62" x="579.52" y="961.61" width="37.99" height="38.14"/>
    <rect class="cls-62" x="541.53" y="961.61" width="37.99" height="38.14"/>
    <rect class="cls-24" x="503.54" y="961.61" width="37.99" height="38.14"/>
    <rect class="cls-24" x="465.56" y="961.61" width="37.99" height="38.14"/>
    <rect class="cls-24" x="427.57" y="961.61" width="37.99" height="38.14"/>
    <rect class="cls-24" x="389.58" y="961.61" width="37.99" height="38.14"/>
    <rect class="cls-24" x="351.59" y="961.61" width="37.99" height="38.14"/>
    <rect class="cls-3" x="997.39" y="923.47" width="37.99" height="38.14"/>
    <rect class="cls-26" x="959.4" y="923.47" width="37.99" height="38.14"/>
    <rect class="cls-26" x="921.42" y="923.47" width="37.99" height="38.14"/>
    <rect class="cls-26" x="883.43" y="923.47" width="37.99" height="38.14"/>
    <rect class="cls-26" x="845.44" y="923.47" width="37.99" height="38.14"/>
    <rect class="cls-26" x="807.45" y="923.47" width="37.99" height="38.14"/>
    <rect class="cls-26" x="769.46" y="923.47" width="37.99" height="38.14"/>
    <rect class="cls-26" x="731.47" y="923.47" width="37.99" height="38.14"/>
    <rect class="cls-26" x="693.49" y="923.47" width="37.99" height="38.14"/>
    <rect class="cls-10" x="655.5" y="923.47" width="37.99" height="38.14"/>
    <rect class="cls-6" x="617.51" y="923.47" width="37.99" height="38.14"/>
    <rect class="cls-6" x="579.52" y="923.47" width="37.99" height="38.14"/>
    <rect class="cls-32" x="541.53" y="923.47" width="37.99" height="38.14"/>
    <rect class="cls-62" x="503.54" y="923.47" width="37.99" height="38.14"/>
    <rect class="cls-62" x="465.56" y="923.47" width="37.99" height="38.14"/>
    <rect class="cls-30" x="427.57" y="923.47" width="37.99" height="38.14"/>
    <rect class="cls-24" x="389.58" y="923.47" width="37.99" height="38.14"/>
    <rect class="cls-24" x="351.59" y="923.47" width="37.99" height="38.14"/>
    <rect class="cls-3" x="997.39" y="885.34" width="37.99" height="38.14"/>
    <rect class="cls-26" x="959.4" y="885.34" width="37.99" height="38.14"/>
    <rect class="cls-26" x="921.42" y="885.34" width="37.99" height="38.14"/>
    <rect class="cls-26" x="883.43" y="885.34" width="37.99" height="38.14"/>
    <rect class="cls-26" x="845.44" y="885.34" width="37.99" height="38.14"/>
    <rect class="cls-33" x="807.45" y="885.34" width="37.99" height="38.14"/>
    <rect class="cls-26" x="769.46" y="885.34" width="37.99" height="38.14"/>
    <rect class="cls-26" x="731.47" y="885.34" width="37.99" height="38.14"/>
    <rect class="cls-23" x="693.49" y="885.34" width="37.99" height="38.14"/>
    <rect class="cls-23" x="655.5" y="885.34" width="37.99" height="38.14"/>
    <rect class="cls-23" x="617.51" y="885.34" width="37.99" height="38.14"/>
    <rect class="cls-6" x="579.52" y="885.34" width="37.99" height="38.14"/>
    <rect class="cls-6" x="541.53" y="885.34" width="37.99" height="38.14"/>
    <rect class="cls-6" x="503.54" y="885.34" width="37.99" height="38.14"/>
    <rect class="cls-6" x="465.56" y="885.34" width="37.99" height="38.14"/>
    <rect class="cls-62" x="427.57" y="885.34" width="37.99" height="38.14"/>
    <rect class="cls-62" x="389.58" y="885.34" width="37.99" height="38.14"/>
    <rect class="cls-62" x="351.59" y="885.34" width="37.99" height="38.14"/>
    <rect class="cls-36" x="997.39" y="847.2" width="37.99" height="38.14"/>
    <rect class="cls-3" x="959.4" y="847.2" width="37.99" height="38.14"/>
    <rect class="cls-26" x="921.42" y="847.2" width="37.99" height="38.14"/>
    <rect class="cls-26" x="883.43" y="847.2" width="37.99" height="38.14"/>
    <rect class="cls-3" x="845.44" y="847.2" width="37.99" height="38.14"/>
    <rect class="cls-3" x="807.45" y="847.2" width="37.99" height="38.14"/>
    <rect class="cls-3" x="769.46" y="847.2" width="37.99" height="38.14"/>
    <rect class="cls-23" x="731.47" y="847.2" width="37.99" height="38.14"/>
    <rect class="cls-23" x="693.49" y="847.2" width="37.99" height="38.14"/>
    <rect class="cls-23" x="655.5" y="847.2" width="37.99" height="38.14"/>
    <rect class="cls-23" x="617.51" y="847.2" width="37.99" height="38.14"/>
    <rect class="cls-23" x="579.52" y="847.2" width="37.99" height="38.14"/>
    <rect class="cls-6" x="541.53" y="847.2" width="37.99" height="38.14"/>
    <rect class="cls-6" x="503.54" y="847.2" width="37.99" height="38.14"/>
    <rect class="cls-6" x="465.56" y="847.2" width="37.99" height="38.14"/>
    <rect class="cls-6" x="427.57" y="847.2" width="37.99" height="38.14"/>
    <rect class="cls-6" x="389.58" y="847.2" width="37.99" height="38.14"/>
    <rect class="cls-32" x="351.59" y="847.2" width="37.99" height="38.14"/>
    <rect class="cls-16" x="997.39" y="809.06" width="37.99" height="38.14"/>
    <rect class="cls-3" x="959.4" y="809.06" width="37.99" height="38.14"/>
    <rect class="cls-3" x="921.42" y="809.06" width="37.99" height="38.14"/>
    <rect class="cls-3" x="883.43" y="809.06" width="37.99" height="38.14"/>
    <rect class="cls-3" x="845.44" y="809.06" width="37.99" height="38.14"/>
    <rect class="cls-3" x="807.45" y="809.06" width="37.99" height="38.14"/>
    <rect class="cls-23" x="769.46" y="809.06" width="37.99" height="38.14"/>
    <rect class="cls-23" x="731.47" y="809.06" width="37.99" height="38.14"/>
    <rect class="cls-23" x="693.49" y="809.06" width="37.99" height="38.14"/>
    <rect class="cls-23" x="655.5" y="809.06" width="37.99" height="38.14"/>
    <rect class="cls-23" x="617.51" y="809.06" width="37.99" height="38.14"/>
    <rect class="cls-23" x="579.52" y="809.06" width="37.99" height="38.14"/>
    <rect class="cls-23" x="541.53" y="809.06" width="37.99" height="38.14"/>
    <rect class="cls-6" x="503.54" y="809.06" width="37.99" height="38.14"/>
    <rect class="cls-6" x="465.56" y="809.06" width="37.99" height="38.14"/>
    <rect class="cls-6" x="427.57" y="809.06" width="37.99" height="38.14"/>
    <rect class="cls-6" x="389.58" y="809.06" width="37.99" height="38.14"/>
    <rect class="cls-16" x="997.39" y="770.93" width="37.99" height="38.14"/>
    <rect class="cls-3" x="959.4" y="770.93" width="37.99" height="38.14"/>
    <rect class="cls-3" x="921.42" y="770.93" width="37.99" height="38.14"/>
    <rect class="cls-3" x="883.43" y="770.93" width="37.99" height="38.14"/>
    <rect class="cls-3" x="845.44" y="770.93" width="37.99" height="38.14"/>
    <rect class="cls-2" x="807.45" y="770.93" width="37.99" height="38.14"/>
    <rect class="cls-2" x="769.46" y="770.93" width="37.99" height="38.14"/>
    <rect class="cls-2" x="731.47" y="770.93" width="37.99" height="38.14"/>
    <rect class="cls-2" x="693.49" y="770.93" width="37.99" height="38.14"/>
    <rect class="cls-2" x="655.5" y="770.93" width="37.99" height="38.14"/>
    <rect class="cls-23" x="617.51" y="770.93" width="37.99" height="38.14"/>
    <rect class="cls-23" x="579.52" y="770.93" width="37.99" height="38.14"/>
    <rect class="cls-23" x="541.53" y="770.93" width="37.99" height="38.14"/>
    <rect class="cls-23" x="503.54" y="770.93" width="37.99" height="38.14"/>
    <rect class="cls-6" x="465.56" y="770.93" width="37.99" height="38.14"/>
    <rect class="cls-6" x="427.57" y="770.93" width="37.99" height="38.14"/>
    <rect class="cls-6" x="389.58" y="770.93" width="37.99" height="38.14"/>
    <rect class="cls-16" x="997.39" y="732.79" width="37.99" height="38.14"/>
    <rect class="cls-3" x="959.4" y="732.79" width="37.99" height="38.14"/>
    <rect class="cls-3" x="921.42" y="732.79" width="37.99" height="38.14"/>
    <rect class="cls-15" x="883.43" y="732.79" width="37.99" height="38.14"/>
    <rect class="cls-15" x="845.44" y="732.79" width="37.99" height="38.14"/>
    <rect class="cls-15" x="807.45" y="732.79" width="37.99" height="38.14"/>
    <rect class="cls-15" x="769.46" y="732.79" width="37.99" height="38.14"/>
    <rect class="cls-15" x="731.47" y="732.79" width="37.99" height="38.14"/>
    <rect class="cls-15" x="693.49" y="732.79" width="37.99" height="38.14"/>
    <rect class="cls-23" x="655.5" y="732.79" width="37.99" height="38.14"/>
    <rect class="cls-23" x="617.51" y="732.79" width="37.99" height="38.14"/>
    <rect class="cls-23" x="579.52" y="732.79" width="37.99" height="38.14"/>
    <rect class="cls-23" x="541.53" y="732.79" width="37.99" height="38.14"/>
    <rect class="cls-23" x="503.54" y="732.79" width="37.99" height="38.14"/>
    <rect class="cls-23" x="465.56" y="732.79" width="37.99" height="38.14"/>
    <rect class="cls-6" x="427.57" y="732.79" width="37.99" height="38.14"/>
    <rect class="cls-6" x="389.58" y="732.79" width="37.99" height="38.14"/>
    <rect class="cls-16" x="997.39" y="694.66" width="37.99" height="38.14"/>
    <rect class="cls-16" x="959.4" y="694.66" width="37.99" height="38.14"/>
    <rect class="cls-3" x="921.42" y="694.66" width="37.99" height="38.14"/>
    <rect class="cls-63" x="883.43" y="694.66" width="37.99" height="38.14"/>
    <rect class="cls-15" x="845.44" y="694.66" width="37.99" height="38.14"/>
    <rect class="cls-15" x="807.45" y="694.66" width="37.99" height="38.14"/>
    <rect class="cls-15" x="769.46" y="694.66" width="37.99" height="38.14"/>
    <rect class="cls-23" x="731.47" y="694.66" width="37.99" height="38.14"/>
    <rect class="cls-60" x="693.49" y="694.66" width="37.99" height="38.14"/>
    <rect class="cls-15" x="655.5" y="694.66" width="37.99" height="38.14"/>
    <rect class="cls-15" x="617.51" y="694.66" width="37.99" height="38.14"/>
    <rect class="cls-15" x="579.52" y="694.66" width="37.99" height="38.14"/>
    <rect class="cls-9" x="541.53" y="694.66" width="37.99" height="38.14"/>
    <rect class="cls-23" x="503.54" y="694.66" width="37.99" height="38.14"/>
    <rect class="cls-23" x="465.56" y="694.66" width="37.99" height="38.14"/>
    <rect class="cls-23" x="427.57" y="694.66" width="37.99" height="38.14"/>
    <rect class="cls-16" x="997.39" y="656.52" width="37.99" height="38.14"/>
    <rect class="cls-16" x="959.4" y="656.52" width="37.99" height="38.14"/>
    <rect class="cls-16" x="921.42" y="656.52" width="37.99" height="38.14"/>
    <rect class="cls-23" x="883.43" y="656.52" width="37.99" height="38.14"/>
    <rect class="cls-23" x="845.44" y="656.52" width="37.99" height="38.14"/>
    <rect class="cls-23" x="807.45" y="656.52" width="37.99" height="38.14"/>
    <rect class="cls-23" x="769.46" y="656.52" width="37.99" height="38.14"/>
    <rect class="cls-23" x="731.47" y="656.52" width="37.99" height="38.14"/>
    <rect class="cls-23" x="693.49" y="656.52" width="37.99" height="38.14"/>
    <rect class="cls-23" x="655.5" y="656.52" width="37.99" height="38.14"/>
    <rect class="cls-23" x="617.51" y="656.52" width="37.99" height="38.14"/>
    <rect class="cls-23" x="579.52" y="656.52" width="37.99" height="38.14"/>
    <rect class="cls-23" x="541.53" y="656.52" width="37.99" height="38.14"/>
    <rect class="cls-23" x="503.54" y="656.52" width="37.99" height="38.14"/>
    <rect class="cls-23" x="465.56" y="656.52" width="37.99" height="38.14"/>
    <rect class="cls-23" x="427.57" y="656.52" width="37.99" height="38.14"/>
    <rect class="cls-16" x="997.39" y="618.39" width="37.99" height="38.14"/>
    <rect class="cls-16" x="959.4" y="618.39" width="37.99" height="38.14"/>
    <rect class="cls-23" x="921.42" y="618.39" width="37.99" height="38.14"/>
    <rect class="cls-23" x="883.43" y="618.39" width="37.99" height="38.14"/>
    <rect class="cls-23" x="845.44" y="618.39" width="37.99" height="38.14"/>
    <rect class="cls-23" x="807.45" y="618.39" width="37.99" height="38.14"/>
    <rect class="cls-23" x="769.46" y="618.39" width="37.99" height="38.14"/>
    <rect class="cls-23" x="731.47" y="618.39" width="37.99" height="38.14"/>
    <rect class="cls-23" x="693.49" y="618.39" width="37.99" height="38.14"/>
    <rect class="cls-23" x="655.5" y="618.39" width="37.99" height="38.14"/>
    <rect class="cls-23" x="617.51" y="618.39" width="37.99" height="38.14"/>
    <rect class="cls-23" x="579.52" y="618.39" width="37.99" height="38.14"/>
    <rect class="cls-23" x="541.53" y="618.39" width="37.99" height="38.14"/>
    <rect class="cls-23" x="503.54" y="618.39" width="37.99" height="38.14"/>
    <rect class="cls-23" x="465.56" y="618.39" width="37.99" height="38.14"/>
    <rect class="cls-23" x="997.39" y="580.25" width="37.99" height="38.14"/>
    <rect class="cls-23" x="959.4" y="580.25" width="37.99" height="38.14"/>
    <rect class="cls-23" x="921.42" y="580.25" width="37.99" height="38.14"/>
    <rect class="cls-23" x="883.43" y="580.25" width="37.99" height="38.14"/>
    <rect class="cls-23" x="845.44" y="580.25" width="37.99" height="38.14"/>
    <rect class="cls-2" x="807.45" y="580.25" width="37.99" height="38.14"/>
    <rect class="cls-2" x="769.46" y="580.25" width="37.99" height="38.14"/>
    <rect class="cls-2" x="731.47" y="580.25" width="37.99" height="38.14"/>
    <rect class="cls-2" x="693.49" y="580.25" width="37.99" height="38.14"/>
    <rect class="cls-2" x="655.5" y="580.25" width="37.99" height="38.14"/>
    <rect class="cls-23" x="617.51" y="580.25" width="37.99" height="38.14"/>
    <rect class="cls-23" x="579.52" y="580.25" width="37.99" height="38.14"/>
    <rect class="cls-23" x="541.53" y="580.25" width="37.99" height="38.14"/>
    <rect class="cls-23" x="503.54" y="580.25" width="37.99" height="38.14"/>
    <rect class="cls-50" x="465.56" y="580.25" width="37.99" height="38.14"/>
    <rect class="cls-23" x="997.39" y="542.11" width="37.99" height="38.14"/>
    <rect class="cls-23" x="959.4" y="542.11" width="37.99" height="38.14"/>
    <rect class="cls-23" x="921.42" y="542.11" width="37.99" height="38.14"/>
    <rect class="cls-23" x="883.43" y="542.11" width="37.99" height="38.14"/>
    <rect class="cls-23" x="845.44" y="542.11" width="37.99" height="38.14"/>
    <rect class="cls-22" x="807.45" y="542.11" width="37.99" height="38.14"/>
    <rect class="cls-15" x="769.46" y="542.11" width="37.99" height="38.14"/>
    <rect class="cls-15" x="731.47" y="542.11" width="37.99" height="38.14"/>
    <rect class="cls-15" x="693.49" y="542.11" width="37.99" height="38.14"/>
    <rect class="cls-15" x="655.5" y="542.11" width="37.99" height="38.14"/>
    <rect class="cls-23" x="617.51" y="542.11" width="37.99" height="38.14"/>
    <rect class="cls-23" x="579.52" y="542.11" width="37.99" height="38.14"/>
    <rect class="cls-23" x="541.53" y="542.11" width="37.99" height="38.14"/>
    <rect class="cls-23" x="997.39" y="503.98" width="37.99" height="38.14"/>
    <rect class="cls-23" x="959.4" y="503.98" width="37.99" height="38.14"/>
    <rect class="cls-23" x="921.42" y="503.98" width="37.99" height="38.14"/>
    <rect class="cls-23" x="883.43" y="503.98" width="37.99" height="38.14"/>
    <rect class="cls-23" x="845.44" y="503.98" width="37.99" height="38.14"/>
    <rect class="cls-23" x="807.45" y="503.98" width="37.99" height="38.14"/>
    <rect class="cls-23" x="769.46" y="503.98" width="37.99" height="38.14"/>
    <rect class="cls-23" x="731.47" y="503.98" width="37.99" height="38.14"/>
    <rect class="cls-23" x="693.49" y="503.98" width="37.99" height="38.14"/>
    <rect class="cls-23" x="655.5" y="503.98" width="37.99" height="38.14"/>
    <rect class="cls-23" x="617.51" y="503.98" width="37.99" height="38.14"/>
    <rect class="cls-23" x="579.52" y="503.98" width="37.99" height="38.14"/>
    <rect class="cls-23" x="541.53" y="503.98" width="37.99" height="38.14"/>
    <rect class="cls-15" x="997.39" y="465.84" width="37.99" height="38.14"/>
    <rect class="cls-15" x="959.4" y="465.84" width="37.99" height="38.14"/>
    <rect class="cls-15" x="921.42" y="465.84" width="37.99" height="38.14"/>
    <rect class="cls-23" x="883.43" y="465.84" width="37.99" height="38.14"/>
    <rect class="cls-23" x="845.44" y="465.84" width="37.99" height="38.14"/>
    <rect class="cls-23" x="807.45" y="465.84" width="37.99" height="38.14"/>
    <rect class="cls-23" x="769.46" y="465.84" width="37.99" height="38.14"/>
    <rect class="cls-23" x="731.47" y="465.84" width="37.99" height="38.14"/>
    <rect class="cls-23" x="693.49" y="465.84" width="37.99" height="38.14"/>
    <rect class="cls-23" x="655.5" y="465.84" width="37.99" height="38.14"/>
    <rect class="cls-23" x="617.51" y="465.84" width="37.99" height="38.14"/>
    <rect class="cls-23" x="579.52" y="465.84" width="37.99" height="38.14"/>
    <rect class="cls-23" x="997.39" y="427.71" width="37.99" height="38.14"/>
    <rect class="cls-23" x="959.4" y="427.71" width="37.99" height="38.14"/>
    <rect class="cls-23" x="921.42" y="427.71" width="37.99" height="38.14"/>
    <rect class="cls-23" x="883.43" y="427.71" width="37.99" height="38.14"/>
    <rect class="cls-23" x="845.44" y="427.71" width="37.99" height="38.14"/>
    <rect class="cls-23" x="807.45" y="427.71" width="37.99" height="38.14"/>
    <rect class="cls-23" x="769.46" y="427.71" width="37.99" height="38.14"/>
    <rect class="cls-23" x="731.47" y="427.71" width="37.99" height="38.14"/>
    <rect class="cls-23" x="693.49" y="427.71" width="37.99" height="38.14"/>
    <rect class="cls-23" x="655.5" y="427.71" width="37.99" height="38.14"/>
    <rect class="cls-50" x="617.51" y="427.71" width="37.99" height="38.14"/>
    <rect class="cls-23" x="997.39" y="389.57" width="37.99" height="38.14"/>
    <rect class="cls-23" x="959.4" y="389.57" width="37.99" height="38.14"/>
    <rect class="cls-23" x="921.42" y="389.57" width="37.99" height="38.14"/>
    <rect class="cls-23" x="883.43" y="389.57" width="37.99" height="38.14"/>
    <rect class="cls-23" x="845.44" y="389.57" width="37.99" height="38.14"/>
    <rect class="cls-23" x="807.45" y="389.57" width="37.99" height="38.14"/>
    <rect class="cls-23" x="769.46" y="389.57" width="37.99" height="38.14"/>
    <rect class="cls-23" x="731.47" y="389.57" width="37.99" height="38.14"/>
    <rect class="cls-23" x="693.49" y="389.57" width="37.99" height="38.14"/>
    <rect class="cls-23" x="997.39" y="351.43" width="37.99" height="38.14"/>
    <rect class="cls-23" x="959.4" y="351.43" width="37.99" height="38.14"/>
    <rect class="cls-23" x="921.42" y="351.43" width="37.99" height="38.14"/>
    <rect class="cls-23" x="883.43" y="351.43" width="37.99" height="38.14"/>
    <rect class="cls-23" x="845.44" y="351.43" width="37.99" height="38.14"/>
    <rect class="cls-23" x="807.45" y="351.43" width="37.99" height="38.14"/>
    <rect class="cls-23" x="769.46" y="351.43" width="37.99" height="38.14"/>
    <rect class="cls-23" x="997.39" y="313.3" width="37.99" height="38.14"/>
    <rect class="cls-23" x="959.4" y="313.3" width="37.99" height="38.14"/>
    <rect class="cls-23" x="921.42" y="313.3" width="37.99" height="38.14"/>
    <rect class="cls-23" x="883.43" y="313.3" width="37.99" height="38.14"/>
  </g>
  <circle class="cls-56" cx="1035.38" cy="999.74" r="719.27"/>
  <rect class="cls-15" x="1018.95" width="32.87" height="1996.47"/>
</svg>
